<svg xmlns="http://www.w3.org/2000/svg" width="25" height="32" viewBox="0 0 25 32">
  <defs fill="#ffffff">
    <style>
      .cls-1 {
        fill: #ffffff;
        fill-rule: evenodd;
      }
    </style>
  </defs>
  <path id="Forma_1_copy_7" data-name="Forma 1 copy 7" class="cls-1" d="M403.656,477.194a1.086,1.086,0,0,0-.8-0.34h-5.678v-5.142a1.659,1.659,0,0,0-.5-1.215,1.64,1.64,0,0,0-1.207-.5h-7.95a1.638,1.638,0,0,0-1.207.5,1.655,1.655,0,0,0-.5,1.215v5.142h-5.679a1.086,1.086,0,0,0-.8.34,1.1,1.1,0,0,0-.337.8v22.857a1.1,1.1,0,0,0,.337.8,1.089,1.089,0,0,0,.8.339h22.716a1.085,1.085,0,0,0,.8-0.339,1.1,1.1,0,0,0,.338-0.8V478A1.1,1.1,0,0,0,403.656,477.194Zm-15.563-4.34a0.552,0.552,0,0,1,.168-0.4,0.546,0.546,0,0,1,.4-0.169H389.8a0.544,0.544,0,0,1,.4.169,0.552,0.552,0,0,1,.168.4v1.714h2.272v-1.714a0.552,0.552,0,0,1,.168-0.4,0.546,0.546,0,0,1,.4-0.169h1.136a0.544,0.544,0,0,1,.4.169,0.552,0.552,0,0,1,.168.4v5.714a0.552,0.552,0,0,1-.168.4,0.545,0.545,0,0,1-.4.17H393.2a0.577,0.577,0,0,1-.568-0.572v-1.714h-2.272v1.714a0.552,0.552,0,0,1-.168.4,0.545,0.545,0,0,1-.4.17h-1.136a0.577,0.577,0,0,1-.568-0.572v-5.714Zm13.629,26.858h-6.815v-4a0.552,0.552,0,0,0-.168-0.4,0.545,0.545,0,0,0-.4-0.17h-5.68a0.577,0.577,0,0,0-.567.572v4h-6.815V479.14h4.543v0.571a1.659,1.659,0,0,0,.5,1.214,1.636,1.636,0,0,0,1.207.5h7.951a1.634,1.634,0,0,0,1.206-.5,1.659,1.659,0,0,0,.5-1.214V479.14h4.543v20.572h0Zm-16.469-6.858h-1.136a0.543,0.543,0,0,0-.4.17,0.553,0.553,0,0,0-.169.4v1.143a0.55,0.55,0,0,0,.169.4,0.543,0.543,0,0,0,.4.17h1.136a0.579,0.579,0,0,0,.568-0.571v-1.143a0.549,0.549,0,0,0-.169-0.4A0.543,0.543,0,0,0,385.253,492.854Zm0-4.571h-1.136a0.542,0.542,0,0,0-.4.169,0.554,0.554,0,0,0-.169.4V490a0.553,0.553,0,0,0,.169.4,0.543,0.543,0,0,0,.4.17h1.136a0.543,0.543,0,0,0,.4-0.17,0.549,0.549,0,0,0,.169-0.4v-1.143a0.55,0.55,0,0,0-.169-0.4A0.542,0.542,0,0,0,385.253,488.283Zm4.543,0h-1.135a0.546,0.546,0,0,0-.4.169,0.555,0.555,0,0,0-.168.4V490a0.577,0.577,0,0,0,.568.572H389.8a0.577,0.577,0,0,0,.568-0.572v-1.143a0.555,0.555,0,0,0-.168-0.4A0.546,0.546,0,0,0,389.8,488.283Zm-4.543-4.572h-1.136a0.543,0.543,0,0,0-.4.17,0.553,0.553,0,0,0-.169.4v1.143a0.552,0.552,0,0,0,.169.4,0.539,0.539,0,0,0,.4.17h1.136a0.539,0.539,0,0,0,.4-0.17,0.548,0.548,0,0,0,.169-0.4v-1.143a0.549,0.549,0,0,0-.169-0.4A0.543,0.543,0,0,0,385.253,483.711Zm13.63,9.143h-1.136a0.543,0.543,0,0,0-.4.17,0.549,0.549,0,0,0-.169.4v1.143a0.579,0.579,0,0,0,.568.571h1.136a0.579,0.579,0,0,0,.568-0.571v-1.143a0.553,0.553,0,0,0-.169-0.4A0.543,0.543,0,0,0,398.883,492.854Zm-4.543-4.571H393.2a0.546,0.546,0,0,0-.4.169,0.555,0.555,0,0,0-.168.4V490a0.577,0.577,0,0,0,.568.572h1.136a0.545,0.545,0,0,0,.4-0.17,0.552,0.552,0,0,0,.168-0.4v-1.143a0.555,0.555,0,0,0-.168-0.4A0.544,0.544,0,0,0,394.34,488.283Zm-4.544-4.572h-1.135a0.577,0.577,0,0,0-.568.572v1.143a0.551,0.551,0,0,0,.168.4,0.543,0.543,0,0,0,.4.17H389.8a0.543,0.543,0,0,0,.4-0.17,0.551,0.551,0,0,0,.168-0.4v-1.143A0.577,0.577,0,0,0,389.8,483.711Zm9.087,4.572h-1.136a0.542,0.542,0,0,0-.4.169,0.55,0.55,0,0,0-.169.4V490a0.549,0.549,0,0,0,.169.4,0.543,0.543,0,0,0,.4.17h1.136a0.543,0.543,0,0,0,.4-0.17,0.549,0.549,0,0,0,.169-0.4v-1.143a0.556,0.556,0,0,0-.169-0.4A0.542,0.542,0,0,0,398.883,488.283Zm-4.543-4.572H393.2a0.577,0.577,0,0,0-.568.572v1.143a0.551,0.551,0,0,0,.168.4,0.543,0.543,0,0,0,.4.17h1.136a0.541,0.541,0,0,0,.4-0.17,0.551,0.551,0,0,0,.168-0.4v-1.143a0.552,0.552,0,0,0-.168-0.4A0.545,0.545,0,0,0,394.34,483.711Zm2.839,1.715a0.548,0.548,0,0,0,.169.4,0.539,0.539,0,0,0,.4.17h1.137a0.541,0.541,0,0,0,.4-0.17,0.551,0.551,0,0,0,.168-0.4v-1.143a0.552,0.552,0,0,0-.168-0.4,0.545,0.545,0,0,0-.4-0.17h-1.137a0.543,0.543,0,0,0-.4.17,0.549,0.549,0,0,0-.169.4v1.143Z" transform="translate(-379 -470)" fill="#ffffff"/>
</svg>